<svg width="25" height="24" viewBox="0 0 25 24" fill="none" xmlns="http://www.w3.org/2000/svg">
<g clip-path="url(#clip0_365_1101)">
<path d="M5.58124 18.4444C5.43127 18.4169 5.28131 18.3913 5.06886 18.3532C6.95966 17.967 7.63138 16.4449 7.51141 15.2883C7.36582 13.8855 6.20734 12.7914 4.83579 12.7483C3.42112 12.7039 2.18391 13.6874 1.94646 15.0427C1.81087 15.8182 1.96833 16.5305 2.42135 17.1716C2.87687 17.8165 3.5136 18.187 4.3534 18.3445C4.23343 18.3738 4.18344 18.3913 4.1322 18.3982C2.14892 18.6638 0.600529 20.0603 0.141887 22.0005C0.0975219 22.1886 0.063155 22.3791 0.0244141 22.5685V23.2233C0.0362863 23.2433 0.0506579 23.2627 0.0594059 23.2839C0.260609 23.7907 0.663014 24.0456 1.12291 23.9581C1.59842 23.8675 1.88648 23.4995 1.90022 22.964C1.93834 21.4569 3.1893 20.2346 4.69769 20.2296C6.23171 20.2246 7.48329 21.445 7.52266 22.984C7.53765 23.5714 7.93756 23.9825 8.48243 23.9706C9.01606 23.9594 9.40034 23.5357 9.39659 22.9634C9.38285 20.7726 7.75135 18.84 5.58124 18.4438V18.4444ZM3.77479 15.5539C3.77479 15.0396 4.19469 14.6185 4.71019 14.6178C5.22507 14.6178 5.64747 15.0377 5.6481 15.5514C5.64872 16.0644 5.22694 16.4868 4.71269 16.4874C4.19781 16.488 3.77541 16.0675 3.77479 15.5532V15.5539Z" fill="black"/>
<path d="M13.7087 1.89446C14.1536 1.89446 14.5316 1.58516 14.6278 1.14214C14.7203 0.71724 14.4829 0.275469 14.0667 0.0973853C14.0099 0.0730161 13.953 0.0486468 13.8961 0.0249023H13.5212C13.4644 0.0492716 13.4075 0.0730161 13.3506 0.0973853C12.9345 0.275469 12.6964 0.717865 12.7889 1.14214C12.8845 1.58454 13.2638 1.89446 13.7087 1.89446Z" fill="black"/>
<path d="M23.9463 9.95695C23.7651 9.54018 23.3252 9.30461 22.8991 9.39646C22.4548 9.49269 22.1455 9.86885 22.1455 10.3137C22.1455 10.758 22.4548 11.1348 22.8985 11.2317C23.3234 11.3241 23.7645 11.0879 23.9457 10.6718C23.9701 10.6149 23.9945 10.5581 24.0188 10.5012V10.1269C23.9945 10.0701 23.9707 10.0132 23.9457 9.95633L23.9463 9.95695Z" fill="black"/>
<path d="M12.4777 3.87848C9.37215 4.48333 7.15018 7.16021 7.14893 10.6431C7.18892 12.3284 7.95624 14.0186 9.52337 15.3277C9.84579 15.597 10.1957 15.8344 10.5388 16.0794C10.7874 16.2568 10.9005 16.4836 10.9005 16.7936C10.8993 18.0614 11.4829 18.9568 12.642 19.4817C12.7008 19.5086 12.7614 19.5979 12.7676 19.6629C12.8201 20.2259 13.19 20.6027 13.7068 20.6039C14.2335 20.6052 14.6009 20.2253 14.6515 19.6442C14.6572 19.5785 14.7172 19.4886 14.7753 19.4611C15.9275 18.9287 16.5067 18.0289 16.5199 16.7661C16.523 16.4955 16.6186 16.2824 16.8354 16.1225C17.0928 15.9331 17.3559 15.7501 17.6083 15.5545C19.6023 14.0086 20.502 11.9753 20.2084 9.47404C19.771 5.75491 16.1568 3.16114 12.4777 3.87785V3.87848ZM16.4805 14.0617C16.2499 14.2354 16.0168 14.406 15.7825 14.5735C15.0065 15.1296 14.6472 15.8894 14.6434 16.8367C14.6409 17.4447 14.1673 17.8539 13.5662 17.7946C13.1244 17.7508 12.7939 17.3853 12.7701 16.9267C12.757 16.6705 12.7482 16.4118 12.7039 16.16C12.5908 15.5232 12.2409 15.0296 11.7316 14.6416C11.3411 14.3441 10.9212 14.0773 10.5638 13.7449C9.20719 12.4827 8.72731 10.9162 9.18157 9.13412C9.6196 7.41515 10.7637 6.28541 12.4714 5.8049C15.4432 4.96759 18.3944 7.23144 18.3944 10.5375C18.3582 11.8672 17.7258 13.1207 16.4799 14.0611L16.4805 14.0617Z" fill="black"/>
<path d="M4.33406 11.2492C4.84894 11.2505 5.27134 10.8299 5.27259 10.3163C5.27384 9.80142 4.85394 9.38089 4.33844 9.37964C3.82231 9.37839 3.40115 9.79704 3.39991 10.3119C3.39866 10.8268 3.81856 11.248 4.33406 11.2486V11.2492Z" fill="black"/>
<path d="M20.3425 2.77005C19.822 2.7663 19.404 3.17495 19.399 3.69295C19.394 4.20471 19.8139 4.62961 20.3288 4.63523C20.8443 4.64086 21.2642 4.22595 21.2679 3.70733C21.2717 3.18495 20.8655 2.77442 20.3425 2.77067V2.77005Z" fill="black"/>
<path d="M7.07982 4.63521C7.59345 4.63583 8.0171 4.21468 8.01835 3.70168C8.02023 3.18492 7.60407 2.77065 7.08357 2.77002C6.56057 2.7694 6.15004 3.1768 6.14941 3.69855C6.14879 4.21718 6.56307 4.63458 7.07982 4.63583V4.63521Z" fill="black"/>
<path d="M13.7013 7.50879C13.1845 7.51254 12.7828 7.91869 12.7728 8.45232C12.7684 8.68539 12.7721 8.91908 12.7721 9.15278C12.7721 9.38647 12.7678 9.61954 12.7734 9.85324C12.7859 10.3812 13.1995 10.7855 13.7169 10.7818C14.2243 10.778 14.6342 10.3787 14.6442 9.86136C14.6536 9.3871 14.6529 8.91221 14.6442 8.43795C14.6348 7.9087 14.2193 7.50566 13.7013 7.50941V7.50879Z" fill="black"/>
<path d="M13.7192 12.6539C13.2024 12.6489 12.7775 13.0638 12.7725 13.578C12.7675 14.0929 13.1837 14.5184 13.6979 14.5234C14.2134 14.5284 14.6396 14.1129 14.6452 13.5993C14.6502 13.0844 14.234 12.6595 13.7192 12.6545V12.6539Z" fill="black"/>
</g>
<defs>
<clipPath id="clip0_365_1101">
<rect width="24.0437" height="24" fill="white"/>
</clipPath>
</defs>
</svg>
