<svg width="41" height="40" viewBox="0 0 41 40" fill="none" xmlns="http://www.w3.org/2000/svg">
<g clip-path="url(#clip0_1663_2826)">
<path d="M40.5 1.90948C40.501 0.951611 40.1567 0.3099 39.2405 0H14.0118C13.6393 0.270249 13.2229 0.496674 12.9005 0.817008C9.02924 4.66832 5.16844 8.52902 1.31807 12.4002C0.997731 12.7226 0.7713 13.1389 0.5 13.5114V38.7395C0.816168 39.6765 1.4819 40.001 2.44918 39.999C14.5032 39.9833 26.5583 39.9885 38.6124 39.9885C39.9136 39.9885 40.4906 39.4125 40.4906 38.1093C40.4906 26.042 40.4854 13.9747 40.5 1.90844V1.90948ZM12.7638 5.47907V12.2562H5.9813C8.23621 10.0023 10.4953 7.74644 12.7638 5.47907ZM3.65542 15.4063C3.82655 15.4063 3.97994 15.4063 4.13333 15.4063C7.45257 15.4063 10.7718 15.4063 14.0911 15.4063C15.3255 15.4063 15.9046 14.8272 15.9056 13.5918C15.9056 10.2726 15.9056 6.95344 15.9056 3.63428V3.14908H37.3425V28.4711C37.2194 28.3542 37.1213 28.2656 37.0284 28.1727C34.0086 25.154 30.9899 22.1354 27.9712 19.1167C27.0498 18.1954 26.2338 18.1943 25.3166 19.1115C23.8161 20.612 22.3156 22.1124 20.8151 23.6118C20.716 23.711 20.6117 23.8049 20.4332 23.9729C20.3017 23.8038 20.1964 23.6358 20.0607 23.4992C18.6103 22.0415 17.1547 20.588 15.7001 19.1345C14.7568 18.1912 13.9533 18.1881 13.0173 19.1209C10.0038 22.127 6.98928 25.1321 3.97785 28.1393C3.88707 28.2301 3.82029 28.3469 3.74203 28.4513C3.71386 28.4335 3.68464 28.4148 3.65647 28.397V15.4052L3.65542 15.4063ZM3.62412 36.83C3.62412 35.5644 3.62099 34.3164 3.63038 33.0685C3.63038 32.9673 3.69403 32.8431 3.76707 32.769C7.26371 29.2725 10.7656 25.7801 14.2674 22.2888C14.2852 22.271 14.3123 22.2648 14.2914 22.2752C19.1571 27.1407 24.0123 31.9958 28.8456 36.829H3.62412V36.83ZM37.3665 36.8645C36.0643 36.8645 34.8048 36.8676 33.5453 36.8582C33.4587 36.8582 33.3554 36.7841 33.2876 36.7163C29.7983 33.2323 26.311 29.7451 22.8259 26.258C22.7904 26.2225 22.7685 26.1756 22.7685 26.1745C24.077 24.864 25.3709 23.5691 26.6815 22.2564C26.7608 22.3326 26.8651 22.4275 26.9653 22.5277C30.3419 25.9032 33.7175 29.2808 37.0994 32.6521C37.2872 32.84 37.3769 33.0226 37.3727 33.2949C37.3571 34.4646 37.3665 35.6353 37.3665 36.8645Z" fill="black"/>
<path d="M29.7138 15.4052C32.265 15.4052 34.329 13.3475 34.3384 10.7963C34.3478 8.24199 32.3026 6.17182 29.7503 6.152C27.1834 6.13217 25.0954 8.19504 25.0871 10.7598C25.0787 13.3277 27.1479 15.4052 29.7138 15.4052ZM29.6835 9.27812C30.535 9.2656 31.2049 9.91462 31.2132 10.7598C31.2216 11.6092 30.5673 12.2759 29.7221 12.2801C28.8738 12.2843 28.2122 11.6258 28.2122 10.7786C28.2122 9.94696 28.856 9.29064 29.6835 9.27917V9.27812Z" fill="black"/>
</g>
<defs>
<clipPath id="clip0_1663_2826">
<rect width="40" height="40" fill="white" transform="translate(0.5)"/>
</clipPath>
</defs>
</svg>
