<svg width="24" height="24" viewBox="0 0 24 24" fill="none" xmlns="http://www.w3.org/2000/svg">
<g clip-path="url(#clip0_783_6455)">
<path d="M23.9574 20.8528C23.7828 19.8726 23.2359 19.1839 22.3367 18.761C22.2728 18.731 22.2171 18.6103 22.2165 18.5314C22.2078 17.6501 22.2115 16.7681 22.2109 15.8861C22.2109 15.1692 21.8479 14.8051 21.1339 14.8051C18.4951 14.8051 15.8562 14.8051 13.2174 14.8051H12.9458V12.9323C13.0397 12.9323 13.1235 12.9323 13.2074 12.9323C14.0346 12.9323 14.8625 12.9354 15.6898 12.931C16.3687 12.9279 16.7974 12.4012 16.6447 11.7456C16.2805 10.1824 15.9113 8.62106 15.5371 7.06034C15.4088 6.52613 15.079 6.27779 14.5259 6.27779C12.8394 6.27654 11.153 6.27654 9.46653 6.27779C8.91586 6.27779 8.58483 6.52989 8.45717 7.06347C8.08484 8.61668 7.71752 10.1705 7.35458 11.7262C7.19688 12.4018 7.6174 12.9279 8.30824 12.931C9.1355 12.9348 9.96339 12.9316 10.7907 12.9316C10.8739 12.9316 10.9577 12.9316 11.0453 12.9316V14.8045H10.7525C8.12114 14.8045 5.49042 14.8045 2.85907 14.8045C2.14695 14.8045 1.78526 15.1698 1.78463 15.8879C1.78463 16.7618 1.78025 17.6357 1.78839 18.5096C1.78964 18.6659 1.74145 18.7335 1.59753 18.7992C0.445494 19.3253 -0.169634 20.5263 0.0543901 21.7849C0.261519 22.949 1.30279 23.8767 2.5124 23.9755C3.65567 24.0687 4.74951 23.4056 5.21446 22.3385C5.68065 21.2694 5.41032 20.014 4.52298 19.2452C4.2683 19.0244 3.96292 18.8624 3.67382 18.6691V16.6949H11.0604C11.0604 17.2979 11.0535 17.8834 11.0647 18.4676C11.0679 18.6459 11.0203 18.7329 10.8482 18.8136C9.55289 19.4191 8.96154 20.881 9.45652 22.2152C9.94337 23.5276 11.3538 24.2476 12.7205 23.8817C13.7968 23.5933 14.5928 22.6381 14.7067 21.4984C14.8168 20.3981 14.1904 19.3015 13.1548 18.8173C12.9777 18.7341 12.9239 18.6397 12.9302 18.4533C12.9439 18.0479 12.9345 17.6419 12.9345 17.236V16.6886H20.3367C20.3367 17.2991 20.3305 17.8984 20.3411 18.497C20.3442 18.6622 20.2885 18.7347 20.1396 18.8036C19.0702 19.2959 18.4106 20.4687 18.5721 21.5647C18.7667 22.8821 19.6665 23.7785 20.9825 23.9667C22.0814 24.1238 23.2528 23.4626 23.739 22.3904C23.8535 22.1383 23.9086 21.8599 23.9906 21.5935V20.9379C23.9793 20.9091 23.9618 20.8816 23.9568 20.8516L23.9574 20.8528ZM2.71202 22.1089C2.24645 22.1045 1.87099 21.7179 1.8785 21.2519C1.88601 20.7959 2.26084 20.4262 2.71828 20.4243C3.18447 20.4231 3.56556 20.8034 3.56369 21.2694C3.56243 21.7342 3.17759 22.1133 2.71202 22.1089ZM11.9946 22.1089C11.5384 22.1076 11.1624 21.7367 11.1549 21.2813C11.1473 20.8147 11.5222 20.4293 11.9884 20.4243C12.4546 20.4199 12.8382 20.7978 12.84 21.2632C12.8419 21.7286 12.4602 22.1101 11.9946 22.1089ZM9.43838 11.0513C9.66803 10.0811 9.89456 9.12336 10.1223 8.16004H13.8726C14.0997 9.11586 14.3256 10.0692 14.559 11.0513H9.439H9.43838ZM21.2641 22.1089C20.7992 22.1039 20.4237 21.7173 20.4318 21.2507C20.4393 20.7946 20.8148 20.425 21.2722 20.4243C21.7384 20.4231 22.1189 20.8047 22.117 21.2707C22.1151 21.7355 21.7303 22.1139 21.2647 22.1089H21.2641Z" fill="black"/>
<path d="M12.4394 5.39769C13.6672 5.21128 14.6377 4.14161 14.7109 2.89554C14.786 1.60943 13.9356 0.424039 12.7072 0.104389C12.5802 0.0712359 12.4525 0.0399591 12.3255 0.00805664H11.6697C11.634 0.0218185 11.599 0.0418357 11.5621 0.048091C10.039 0.31457 9.07592 1.68074 9.3281 3.22019C9.56088 4.64204 10.9613 5.62226 12.4394 5.39769ZM12.0076 1.88154C12.4638 1.88655 12.8361 2.26062 12.8399 2.71663C12.8437 3.18203 12.4638 3.56549 11.9982 3.56611C11.5327 3.56674 11.1522 3.18516 11.1547 2.71914C11.1572 2.25311 11.5408 1.87654 12.0076 1.88154Z" fill="black"/>
</g>
<defs>
<clipPath id="clip0_783_6455">
<rect width="24" height="24" fill="white"/>
</clipPath>
</defs>
</svg>
