<svg width="24" height="24" viewBox="0 0 24 24" fill="none" xmlns="http://www.w3.org/2000/svg">
<g clip-path="url(#clip0_365_1131)">
<path d="M18.8438 0C19.1564 0 19.4686 0 19.7812 0C19.8248 0.0140625 19.867 0.0351562 19.9116 0.04125C21.802 0.292031 23.3381 1.63078 23.8378 3.47109C23.9044 3.71672 23.9466 3.96937 24 4.21875V5.15625C23.9859 5.19938 23.9648 5.24156 23.9587 5.28609C23.7094 7.2 22.3205 8.76281 20.4492 9.23484C20.3836 9.25125 20.3198 9.27469 20.2608 9.29344V14.7113C20.3227 14.73 20.3742 14.7473 20.4263 14.7619C22.2328 15.2648 23.3831 16.4203 23.8688 18.2325C23.9227 18.4336 23.9564 18.6403 23.9995 18.8447V19.7822C23.9855 19.8258 23.9648 19.868 23.9578 19.9125C23.6728 21.7237 22.6847 22.988 20.9892 23.6784C20.6062 23.8345 20.1844 23.8959 19.7803 24.0009H18.8428C18.7992 23.9869 18.757 23.9653 18.7125 23.9597C15.983 23.6016 14.138 20.9869 14.737 18.3127C14.7764 18.1373 14.7352 18.0689 14.5828 17.9934C12.7463 17.0812 10.9134 16.1616 9.07969 15.2442C8.84531 15.127 8.60953 15.0127 8.37422 14.8969C8.32734 14.9503 8.29688 14.9855 8.26594 15.0202C7.03453 16.3997 5.4975 16.9641 3.69422 16.5703C1.88391 16.1747 0.711563 15.0202 0.170625 13.2422C0.095625 12.9895 0.05625 12.7266 0 12.4688C0 12.1561 0 11.8439 0 11.5312C0.0145313 11.4797 0.0351562 11.4286 0.0435937 11.3761C0.332813 9.58922 1.30172 8.31 2.98219 7.64766C4.66547 6.98437 6.24656 7.27125 7.66641 8.39156C7.9275 8.59734 8.15156 8.85047 8.39719 9.08625C8.40094 9.08531 8.41734 9.08625 8.43094 9.07922C10.4958 8.04797 12.5592 7.01484 14.6264 5.98875C14.7816 5.91188 14.7661 5.82469 14.7361 5.68969C14.2238 3.38672 15.533 1.03734 17.7614 0.27375C18.112 0.15375 18.4823 0.09 18.8438 0.00046875V0ZM15.638 7.5975C15.6005 7.60031 15.5916 7.59891 15.585 7.60219C13.5131 8.63719 11.4412 9.67313 9.36797 10.7053C9.24563 10.7663 9.22125 10.8323 9.25266 10.9622C9.41344 11.625 9.42375 12.2953 9.26859 12.9577C9.2175 13.1756 9.28078 13.2548 9.46125 13.3439C10.7203 13.9645 11.9742 14.5959 13.2295 15.2236C14.0241 15.6206 14.8186 16.0167 15.6234 16.4184C16.3453 15.525 17.265 14.9616 18.3689 14.715V9.28406C17.2645 9.03703 16.3505 8.47688 15.638 7.59797V7.5975ZM18.3755 7.30313V7.07156C18.3755 6.30609 18.3745 5.54109 18.3755 4.77562C18.3764 4.16859 18.7683 3.74578 19.3214 3.75047C19.8656 3.75516 20.2481 4.17375 20.2495 4.77047C20.2514 5.53594 20.2495 6.30094 20.2505 7.06641C20.2505 7.14703 20.258 7.22813 20.2617 7.3125C21.4739 6.97547 22.2956 5.57719 22.0861 4.24453C21.8634 2.82938 20.617 1.82016 19.163 1.87734C17.7872 1.93172 16.6069 3.08344 16.5056 4.47047C16.4133 5.73234 17.3086 7.10109 18.375 7.30313H18.3755ZM7.45641 11.6747C7.37813 11.7098 7.30125 11.7408 7.22766 11.7778C6.55125 12.1158 5.87625 12.4561 5.19938 12.7922C4.65141 13.0645 4.10203 12.9127 3.85266 12.4237C3.60328 11.9358 3.80719 11.3948 4.35 11.1216C5.025 10.7812 5.70328 10.4466 6.37922 10.1086C6.45844 10.0692 6.53391 10.0223 6.61641 9.97547C5.68359 9.02063 4.11703 8.92828 3.01594 9.74438C1.88578 10.582 1.54594 12.1177 2.21906 13.3439C2.9025 14.5898 4.40016 15.1331 5.72109 14.6147C6.89953 14.152 7.72453 12.7678 7.45641 11.6747ZM16.5422 18.9755C16.3509 19.9453 16.9064 21.4805 18.4603 21.99C19.808 22.4316 21.2995 21.7612 21.8864 20.4431C22.4672 19.1377 21.9562 17.5941 20.7094 16.8731C19.4105 16.1217 17.9423 16.6327 17.4005 17.3011C17.4703 17.3377 17.5378 17.3747 17.6063 17.4094C18.3169 17.7656 19.0317 18.1134 19.7372 18.48C20.2144 18.728 20.3827 19.2806 20.1455 19.7409C19.9139 20.1909 19.3809 20.3686 18.9023 20.1539C18.817 20.1155 18.735 20.0705 18.6511 20.0287C17.9545 19.6809 17.2575 19.3336 16.5417 18.9759L16.5422 18.9755Z" fill="black"/>
</g>
<defs>
<clipPath id="clip0_365_1131">
<rect width="24" height="24" fill="white"/>
</clipPath>
</defs>
</svg>
