<svg width="24" height="24" viewBox="0 0 24 24" fill="none" xmlns="http://www.w3.org/2000/svg">
<g clip-path="url(#clip0_783_6465)">
<path d="M9.51383 0C9.95157 0 10.3893 0 10.8264 0C11.1039 0.0357022 11.3825 0.0645145 11.6587 0.108986C14.4066 0.550565 16.6198 1.88532 18.3056 4.09761C18.3413 4.14458 18.3839 4.18592 18.3939 4.19657C19.1748 3.41613 19.9438 2.64697 20.7173 1.87405C20.2751 1.87405 19.818 1.88031 19.3608 1.87217C18.9951 1.86591 18.717 1.69366 18.5461 1.37171C18.3745 1.04852 18.3757 0.705901 18.6037 0.424042C18.7465 0.246157 18.9776 0.139051 19.1692 0C20.5281 0 21.8877 0 23.2466 0C23.6693 0.150325 23.9831 0.415899 23.9894 0.888796C24.0056 2.15403 24.0031 3.41989 23.99 4.68513C23.985 5.148 23.6067 5.50941 23.1345 5.55952C22.7049 5.60524 22.281 5.31399 22.1639 4.87804C22.1301 4.75215 22.125 4.61623 22.1238 4.48469C22.1188 4.07568 22.1219 3.66668 22.1219 3.24952C21.2076 4.16337 20.3146 5.0553 19.4278 5.94159C20.9659 9.77425 20.5125 13.347 17.9605 16.6961C18.0238 16.7406 18.1033 16.7813 18.1635 16.8408C19.9658 18.6397 21.7656 20.4411 23.566 22.2418C23.643 22.3189 23.7232 22.3947 23.7908 22.4805C24.2104 23.0129 23.9593 23.7808 23.3061 23.9624C22.9078 24.0733 22.5941 23.9267 22.3142 23.6461C20.4937 21.8215 18.6695 20.0001 16.8496 18.1749C16.7851 18.1098 16.7463 18.0189 16.6955 17.94C16.5684 18.0359 16.5052 18.0797 16.445 18.1279C13.2018 20.6897 8.72915 21.0474 5.14518 18.9829C2.44359 17.4264 0.789688 15.0907 0.180357 12.0279C0.101451 11.632 0.0594927 11.2286 0 10.8284C0 10.3756 0 9.92207 0 9.46922C0.0137773 9.41034 0.0325645 9.35146 0.0413318 9.29196C0.0970671 8.89861 0.116481 8.49649 0.20979 8.11254C1.22806 3.9191 3.82507 1.27964 8.01649 0.235509C8.50496 0.11337 9.01472 0.0764152 9.51383 0ZM17.04 5.58019C14.7342 2.03189 9.92339 0.756009 6.08016 2.9495C2.2482 5.13673 1.07713 9.65086 2.39787 12.9762C2.46425 12.8803 2.50371 12.8002 2.56382 12.74C4.22399 11.0758 5.88665 9.41347 7.54869 7.75113C8.05657 7.24378 8.56758 7.24253 9.07609 7.74988C9.98789 8.66059 10.8984 9.57257 11.8103 10.4833C11.8691 10.5422 11.9324 10.5973 11.98 10.6418C13.6702 8.95122 15.3479 7.27322 17.0412 5.57956L17.04 5.58019ZM3.26897 14.7218C5.44954 18.1292 10.1269 19.561 14.0296 17.4715C18.0582 15.315 19.2362 10.6818 17.9136 7.3465C17.8409 7.44422 17.7946 7.52689 17.7307 7.59141C16.0699 9.25563 14.4079 10.9192 12.7452 12.5809C12.2618 13.0639 11.7345 13.062 11.2498 12.5778C10.3323 11.6615 9.41614 10.7438 8.4987 9.82749C8.43983 9.76861 8.37783 9.71224 8.32711 9.66401C6.63751 11.3533 4.95982 13.0313 3.26897 14.7218Z" fill="black"/>
</g>
<defs>
<clipPath id="clip0_783_6465">
<rect width="24" height="24" fill="white"/>
</clipPath>
</defs>
</svg>
