<svg width="24" height="24" viewBox="0 0 24 24" fill="none" xmlns="http://www.w3.org/2000/svg">
<g clip-path="url(#clip0_783_6466)">
<path d="M23.9931 8.34852C23.9931 7.69544 23.6125 7.31536 22.9614 7.31473C21.7975 7.31348 20.6337 7.31473 19.4705 7.31473C18.7236 7.31473 18.3705 7.66976 18.3705 8.42115C18.3705 12.8894 18.3705 17.3577 18.3705 21.8253V22.1121H16.496V21.8228C16.496 18.5812 16.496 15.3396 16.496 12.0973C16.496 11.4442 16.1154 11.0642 15.4643 11.0642C14.2929 11.0629 13.121 11.0642 11.9496 11.0642C11.2353 11.0642 10.8734 11.4286 10.8734 12.1474C10.8734 15.3815 10.8734 18.615 10.8734 21.8491C10.8734 21.9386 10.8734 22.0282 10.8734 22.1121H8.99898V21.8228C8.99898 19.831 8.99961 17.8392 8.99898 15.8468C8.99898 15.1943 8.61834 14.8142 7.96661 14.8142C6.78711 14.813 5.60762 14.8136 4.42875 14.8142C3.74759 14.8142 3.37697 15.188 3.37634 15.8743C3.37634 17.8661 3.37634 19.8579 3.37634 21.8504V22.1121H1.8763V21.7984C1.8763 14.9244 1.8763 8.05047 1.8763 1.17651C1.8763 1.08258 1.87943 0.988659 1.87442 0.895362C1.85063 0.455173 1.5351 0.097637 1.10061 0.0156103C0.685535 -0.0626594 0.263571 0.16401 0.083266 0.560368C0.0544672 0.623609 0.0275466 0.688104 0 0.752598V23.2504C0.12083 23.6299 0.371253 23.8791 0.75002 24.0006H23.2443C23.8053 23.8102 24.0019 23.4126 24.0006 22.8315C23.9894 18.0039 23.9944 13.1768 23.9937 8.34914L23.9931 8.34852ZM7.10453 22.1083H5.25828V16.7008H7.10453V22.1083ZM14.6053 22.114H12.7578V12.957H14.6053V22.114ZM22.1087 22.1127H20.2624V9.2051H22.1087V22.1127Z" fill="black"/>
<path d="M6.77044 13.0648C8.12836 12.7574 9.03364 11.5833 8.99984 10.1839C8.99796 10.0931 9.03427 9.94908 9.09688 9.91652C9.96898 9.46568 10.8492 9.03051 11.7288 8.59032C11.7858 8.63728 11.834 8.67673 11.8816 8.71617C12.3718 9.12443 12.9371 9.3511 13.5732 9.37176C15.2316 9.42624 16.5426 8.10129 16.4913 6.4307C16.4875 6.30046 16.4844 6.20465 16.634 6.13202C17.4548 5.73378 18.2693 5.32365 19.0825 4.91039C19.2009 4.85028 19.2691 4.86718 19.3668 4.94983C20.2827 5.72251 21.5373 5.84274 22.5559 5.26354C23.6021 4.66869 24.1436 3.52783 23.9495 2.32936C23.7235 0.935537 22.4326 -0.0782124 20.9908 0.00694508C19.6015 0.0889717 18.4051 1.27867 18.3889 2.66436C18.3838 3.07136 18.2593 3.25796 17.9043 3.41888C17.138 3.76577 16.3942 4.1615 15.6367 4.5397C15.1246 4.06633 14.5304 3.79332 13.8424 3.75888C12.1658 3.6756 10.8242 5.00619 10.8805 6.69681C10.8862 6.86149 10.8442 6.94415 10.6952 7.01741C9.89635 7.4075 9.10251 7.80699 8.30992 8.20899C8.19285 8.26847 8.11584 8.27223 8.00315 8.17893C7.25626 7.55966 6.40545 7.35929 5.4626 7.60036C4.01828 7.96854 3.09609 9.50012 3.44731 10.9347C3.81857 12.45 5.2992 13.3992 6.77232 13.0655L6.77044 13.0648ZM21.1917 1.8779C21.7063 1.88291 22.1233 2.3087 22.1189 2.82403C22.1139 3.3381 21.6876 3.75638 21.1723 3.75137C20.6583 3.74636 20.2407 3.31995 20.2457 2.80462C20.2508 2.28992 20.6765 1.8729 21.1917 1.8779ZM13.6734 5.62734C14.1886 5.62233 14.615 6.03935 14.6206 6.55342C14.6256 7.06813 14.208 7.49579 13.694 7.5008C13.1788 7.50581 12.7524 7.08816 12.7474 6.57409C12.7424 6.05813 13.1594 5.63235 13.6734 5.62734ZM6.18132 9.37677C6.69656 9.37489 7.11978 9.79442 7.12228 10.3091C7.12416 10.8238 6.70408 11.2484 6.19008 11.2502C5.67546 11.2521 5.25162 10.832 5.24974 10.3173C5.24786 9.8013 5.66732 9.37865 6.18194 9.37614L6.18132 9.37677Z" fill="black"/>
</g>
<defs>
<clipPath id="clip0_783_6466">
<rect width="24" height="24" fill="white"/>
</clipPath>
</defs>
</svg>
