<svg width="24" height="24" viewBox="0 0 24 24" fill="none" xmlns="http://www.w3.org/2000/svg">
<g clip-path="url(#clip0_366_1146)">
<path d="M23.9901 6.34265C23.9832 4.82652 22.7302 3.56966 21.2374 3.55839C20.6828 3.554 20.2597 3.94102 20.2459 4.46643C20.2315 4.99498 20.6259 5.40266 21.181 5.43209C21.7475 5.46278 22.1174 5.84666 22.118 6.4203C22.1199 10.0763 22.1199 13.7323 22.118 17.3889C22.118 17.9763 21.7193 18.3696 21.1272 18.3696C15.0446 18.3708 8.96197 18.3708 2.87935 18.3696C2.27284 18.3696 1.87914 17.9782 1.87914 17.3751C1.87789 13.7266 1.87789 10.0788 1.87914 6.43032C1.87914 5.84166 2.24217 5.46466 2.82928 5.43209C3.36819 5.40204 3.76063 4.99498 3.75125 4.47645C3.74186 3.95041 3.31937 3.54649 2.76856 3.56089C1.87226 3.58406 1.14745 3.96106 0.587257 4.66057C0.271797 5.05385 0.125959 5.51914 0.00390625 5.99571V17.8085C0.170399 18.2155 0.278056 18.6614 0.515277 19.0209C1.05356 19.8369 1.85536 20.2395 2.83491 20.2433C4.84722 20.2508 6.86015 20.2458 8.87246 20.2458H9.16915V22.1208H8.92442C8.11323 22.1208 7.30205 22.1208 6.49087 22.1208C5.92504 22.1208 5.54198 22.4088 5.4506 22.8992C5.3636 23.3676 5.62711 23.7703 6.14974 23.9694C6.16351 23.975 6.17541 23.9869 6.18792 23.9957H17.8074C17.8199 23.9869 17.8312 23.9744 17.8455 23.9688C18.3682 23.7703 18.6323 23.3651 18.5441 22.8973C18.4514 22.4063 18.0696 22.1214 17.5013 22.1208C16.6895 22.1208 15.8771 22.1208 15.0652 22.1208H14.8211V20.2458H15.1084C17.0995 20.2458 19.0905 20.2464 21.0815 20.2458C22.7696 20.2445 23.9908 19.0234 23.992 17.335C23.9933 15.765 23.992 14.1944 23.992 12.6245C23.992 10.5309 23.9983 8.43679 23.9895 6.34327L23.9901 6.34265ZM12.919 22.1101H11.0738V20.2639H12.919V22.1101Z" fill="black"/>
<path d="M6.41424 9.36913C6.70278 9.37227 6.9907 9.36913 7.31367 9.36913V9.64969C7.31367 11.1026 7.31242 12.5554 7.3143 14.0089C7.3143 14.4529 7.55027 14.8024 7.93208 14.9389C8.55298 15.1619 9.1839 14.7091 9.18578 14.0265C9.19079 12.5655 9.18766 11.1051 9.18766 9.64405V9.37477C9.57197 9.37101 9.91371 9.36037 10.2667 9.5401C12.5319 10.6936 14.8096 11.8234 17.0835 12.96C17.8766 13.3564 18.5576 12.9318 18.5576 12.0413C18.5576 8.38531 18.5576 4.72933 18.5576 1.07334C18.5576 0.181576 17.8778 -0.243641 17.0848 0.152769C14.7627 1.31444 12.4412 2.47862 10.1165 3.63529C9.98319 3.70167 9.82171 3.73862 9.67274 3.73924C8.58741 3.74801 7.50207 3.74175 6.41674 3.74488C5.83902 3.74676 5.44219 4.14004 5.44032 4.71492C5.43656 5.9411 5.43656 7.1679 5.44032 8.39408C5.44219 8.97022 5.83777 9.36162 6.41361 9.36788L6.41424 9.36913ZM7.31868 5.61984H7.56967C8.37334 5.61984 9.17764 5.63174 9.98131 5.61232C10.2142 5.60669 10.4651 5.55158 10.6729 5.44888C12.5882 4.50451 14.4954 3.54386 16.4057 2.58884C16.4871 2.54813 16.5703 2.51307 16.6723 2.46672V10.6504C16.5741 10.6053 16.4864 10.5671 16.4013 10.5245C14.5192 9.58268 12.6364 8.64332 10.7574 7.69645C10.4783 7.55555 10.1973 7.48666 9.88305 7.49167C9.11067 7.50419 8.33767 7.49543 7.56529 7.49543H7.31868V5.62047V5.61984Z" fill="black"/>
</g>
<defs>
<clipPath id="clip0_366_1146">
<rect width="24" height="24" fill="white"/>
</clipPath>
</defs>
</svg>
