<svg width="24" height="24" viewBox="0 0 24 24" fill="none" xmlns="http://www.w3.org/2000/svg">
<g clip-path="url(#clip0_365_1138)">
<path d="M16.3145 0.15279C15.9713 0.0914238 15.6238 0.0507214 15.2788 0H13.9665C13.6058 0.0551048 13.2414 0.0907976 12.8858 0.169071C9.15972 0.99126 6.69905 3.22488 5.60271 6.87369C4.92211 9.138 5.18007 11.3685 6.21193 13.4994C6.28956 13.6603 6.27892 13.7505 6.15119 13.8776C4.42935 15.5903 2.72065 17.3167 0.992546 19.0224C0.467227 19.5409 0.127867 20.1364 -0.000488281 20.8584V21.5616C0.121606 22.0294 0.269372 22.4827 0.567407 22.8785C1.55731 24.191 3.48139 24.3914 4.68481 23.2711C5.43303 22.5748 6.13992 21.8334 6.8631 21.1108C7.94629 20.0293 9.03074 18.9498 10.1058 17.8608C10.2479 17.7168 10.3462 17.713 10.5222 17.7988C15.997 20.4702 22.5375 17.2634 23.7992 11.2946C24.8817 6.17048 21.4556 1.06891 16.3138 0.15279H16.3145ZM8.53234 16.7926C6.87562 18.4501 5.21764 20.1057 3.56342 21.7651C3.27728 22.0519 2.95733 22.2016 2.55035 22.0826C1.92046 21.8985 1.67127 21.1571 2.06134 20.6292C2.10767 20.5666 2.16215 20.5102 2.21725 20.4551C3.88462 18.7863 5.55262 17.1188 7.22061 15.4506C7.26382 15.4074 7.31015 15.3673 7.35523 15.3254C7.34521 15.3498 7.33519 15.3736 7.32518 15.398C7.7547 15.8263 8.18422 16.254 8.61374 16.6823C8.63378 16.6686 8.65319 16.6548 8.67322 16.6416C8.62626 16.6924 8.58118 16.7443 8.53234 16.7926ZM14.6158 16.874C10.4865 16.8696 7.12294 13.5019 7.12419 9.37345C7.12482 5.24309 10.4877 1.87857 14.6183 1.87544C18.7482 1.87231 22.1143 5.23182 22.1218 9.36405C22.1293 13.5013 18.7538 16.879 14.6164 16.8746L14.6158 16.874Z" fill="black"/>
<path d="M18.3703 5.62573C17.8269 5.62636 17.4362 6.04591 17.4349 6.63703C17.433 7.55002 17.4349 8.463 17.4349 9.37599C17.4349 10.289 17.4337 11.202 17.4349 12.1149C17.4362 12.7036 17.83 13.1244 18.3729 13.1237C18.9163 13.1231 19.3077 12.7036 19.3083 12.1124C19.3095 10.2865 19.3102 8.45987 19.3083 6.6339C19.3083 6.0434 18.9151 5.62511 18.3697 5.62573H18.3703Z" fill="black"/>
<path d="M15.5593 8.50817C15.5575 7.91767 15.1661 7.49937 14.6214 7.5C14.0779 7.5 13.6866 7.92017 13.686 8.51067C13.6841 9.71233 13.6841 10.9134 13.686 12.115C13.6866 12.703 14.0811 13.1238 14.6239 13.1232C15.1674 13.1226 15.5575 12.703 15.56 12.1125C15.5618 11.512 15.56 10.9109 15.56 10.3103C15.56 9.70983 15.5618 9.10868 15.56 8.50817H15.5593Z" fill="black"/>
<path d="M11.8086 10.3115C11.7974 9.77865 11.3891 9.37413 10.8713 9.37476C10.3542 9.37538 9.94342 9.78178 9.93778 10.3147C9.9309 10.9384 9.9309 11.5627 9.93778 12.1864C9.94404 12.7174 10.3579 13.1244 10.8745 13.1231C11.3916 13.1225 11.7986 12.7161 11.8086 12.1826C11.8149 11.8708 11.8099 11.5589 11.8099 11.2471C11.8099 10.9352 11.8149 10.6234 11.8086 10.3115Z" fill="black"/>
</g>
<defs>
<clipPath id="clip0_365_1138">
<rect width="24" height="24" fill="white"/>
</clipPath>
</defs>
</svg>
