<svg width="24" height="24" viewBox="0 0 24 24" fill="none" xmlns="http://www.w3.org/2000/svg">
<g clip-path="url(#clip0_365_1113)">
<path d="M18.9375 0.0231934H19.8281C19.8719 0.0369401 19.915 0.0569355 19.96 0.063184C21.8406 0.319999 23.3475 1.62782 23.8394 3.43802C23.9062 3.68359 23.9469 3.93665 24 4.18597V5.12137C23.9856 5.16386 23.9631 5.20573 23.9569 5.24947C23.5637 8.17753 20.5462 9.98898 17.7706 8.9636C17.0462 8.69616 16.4338 8.26564 15.9081 7.69265C14.77 8.34124 13.6406 8.98547 12.4944 9.63906C13.0844 11.2131 13.0837 12.7821 12.4944 14.3555C13.6406 15.0091 14.7706 15.6533 15.9263 16.3125C15.9675 16.2594 16.0006 16.205 16.045 16.1613C17.2994 14.921 18.7987 14.4642 20.5075 14.8953C22.2275 15.3296 23.3244 16.4587 23.8363 18.1508C23.9075 18.3864 23.9463 18.632 24 18.8732V19.8086C23.9844 19.876 23.9619 19.9429 23.9531 20.011C23.6262 22.5417 21.1063 24.3706 18.5881 23.9045C15.8594 23.399 14.2069 20.7827 14.9281 18.1033C14.9663 17.9609 14.9369 17.8996 14.8125 17.829C13.8075 17.2629 12.8069 16.6887 11.8044 16.1175C11.7244 16.0719 11.6425 16.0301 11.5675 15.9901C11.5419 16.0094 11.5281 16.0176 11.5181 16.0288C11.4769 16.0757 11.4375 16.1244 11.3969 16.1713C10.1831 17.5628 8.65312 18.3389 6.80937 18.4408C3.76625 18.6082 1.03688 16.6287 0.23375 13.6962C0.128125 13.3088 0.076875 12.907 0 12.5115C0 12.1685 0 11.8254 0 11.4824C0.019375 11.3612 0.040625 11.2406 0.0575 11.1187C0.7075 6.4998 5.87875 4.06537 9.86125 6.5048C10.5131 6.90408 11.0694 7.41209 11.5556 8.01195C11.6319 7.97071 11.7 7.93571 11.7669 7.8976C12.77 7.32711 13.7706 6.75162 14.7775 6.18862C14.9388 6.09864 14.9631 6.01804 14.915 5.84121C14.2775 3.51488 15.5675 1.07107 17.8506 0.287506C18.2019 0.16691 18.5744 0.110048 18.9375 0.0238182V0.0231934ZM10.175 14.6654C11.4038 13.1676 11.4631 10.5445 9.71313 8.7549C8.015 7.01905 5.14125 6.95719 3.36438 8.61993C1.5475 10.3202 1.43875 13.0139 2.75938 14.6685C3.205 14.2767 3.65188 13.8831 4.10437 13.4857C3.21375 11.9729 3.8875 10.5164 4.71187 9.84214C5.65125 9.07482 7.0475 9.01296 8.0475 9.71217C8.57 10.0777 8.93062 10.5676 9.11812 11.1756C9.37313 12.0016 9.25375 12.7865 8.82563 13.4769C9.29125 13.8874 9.73375 14.2767 10.1744 14.6654H10.175ZM16.63 4.64211C16.6319 6.15301 17.8544 7.3746 19.3675 7.37772C20.8881 7.38147 22.1269 6.14863 22.125 4.63336C22.1231 3.13059 20.8875 1.89588 19.3825 1.894C17.8612 1.89213 16.6281 3.12372 16.63 4.64149V4.64211ZM16.63 19.3468C16.6256 20.8558 17.8494 22.0924 19.3538 22.1005C20.8731 22.108 22.1206 20.8777 22.125 19.3662C22.1294 17.8496 20.8944 16.6162 19.3731 16.6168C17.8587 16.6174 16.6344 17.8365 16.63 19.3468ZM8.72875 15.957C8.17188 15.1815 7.415 14.7779 6.4675 14.7772C5.51938 14.7772 4.765 15.1834 4.20687 15.9576C5.36187 16.7711 7.62813 16.7699 8.72875 15.957ZM7.36938 12.0179C7.37813 11.508 6.99 11.105 6.48375 11.0987C5.9825 11.0925 5.58187 11.4718 5.56875 11.9648C5.555 12.4765 5.9375 12.8846 6.44187 12.8958C6.95312 12.907 7.36 12.5221 7.36875 12.0179H7.36938Z" fill="black"/>
</g>
<defs>
<clipPath id="clip0_365_1113">
<rect width="24" height="24" fill="white"/>
</clipPath>
</defs>
</svg>
