<svg width="24" height="24" viewBox="0 0 24 24" fill="none" xmlns="http://www.w3.org/2000/svg">
<path d="M23.9649 4.07189C23.7933 2.8263 22.6549 1.67527 20.9998 1.68216C14.9768 1.70721 8.95311 1.69155 2.9301 1.69218C1.21237 1.69218 0 2.90834 0 4.63112C0 8.29525 0 11.9594 0 15.6235C0 17.3576 1.21174 18.5668 2.94951 18.5675C5.55898 18.5675 8.16783 18.5675 10.7773 18.5675H11.0434V20.443C10.111 20.443 9.19734 20.4405 8.28368 20.4443C7.72947 20.4468 7.31616 20.847 7.31303 21.3743C7.3099 21.9022 7.72133 22.3161 8.27115 22.3167C10.7554 22.3199 13.2396 22.3199 15.7238 22.3167C16.2755 22.3161 16.6876 21.9059 16.6863 21.378C16.6851 20.8501 16.273 20.4468 15.7195 20.4443C14.8834 20.4399 14.0474 20.443 13.2114 20.443H12.9509V18.5681H13.2415C15.8823 18.5681 18.5224 18.5718 21.1632 18.5662C22.1451 18.5637 22.9479 18.1623 23.4871 17.3444C23.7245 16.9837 23.8328 16.5378 23.9994 16.1308V4.1295C23.9875 4.11009 23.9668 4.09193 23.9643 4.07189H23.9649ZM22.1251 15.6135C22.1251 16.328 21.7594 16.6925 21.0436 16.6931C18.029 16.6931 15.0137 16.6931 11.9991 16.6931C8.98442 16.6931 5.96916 16.6931 2.95452 16.6931C2.23937 16.6931 1.87491 16.328 1.87491 15.6129C1.87491 11.9575 1.87491 8.30214 1.87491 4.64678C1.87491 3.93099 2.23937 3.56777 2.95577 3.56777C8.98567 3.56777 15.015 3.56777 21.0449 3.56777C21.7606 3.56777 22.1251 3.93161 22.1251 4.64803C22.1251 8.30339 22.1251 11.9587 22.1251 15.6141V15.6135Z" fill="black"/>
<path d="M13.17 5.4751C12.6884 5.34547 12.1987 5.61726 12.0453 6.10385C12.0009 6.24475 11.9702 6.39004 11.9338 6.53345C11.3408 8.90689 10.7453 11.2797 10.1572 13.655C10.0076 14.26 10.4597 14.8217 11.0715 14.8161C11.5218 14.8123 11.8687 14.5186 11.9921 14.0308C12.1449 13.4265 12.2927 12.8209 12.4436 12.2159C12.9114 10.341 13.3829 8.46727 13.8451 6.59106C13.9697 6.08443 13.671 5.60912 13.1694 5.47385L13.17 5.4751Z" fill="black"/>
<path d="M8.91116 8.9152C9.28815 8.52505 9.27813 7.9558 8.91053 7.5907C8.54106 7.22435 7.97308 7.21809 7.58607 7.59759C6.95609 8.21444 6.33237 8.83755 5.71554 9.46817C5.34169 9.8508 5.33104 10.3925 5.70052 10.7733C6.32486 11.4177 6.96298 12.0489 7.60235 12.6783C7.83343 12.9056 8.12212 12.992 8.44275 12.92C9.17543 12.7559 9.43594 11.8961 8.91053 11.345C8.52353 10.9392 8.11273 10.5566 7.67875 10.1301C8.11273 9.70426 8.52102 9.3185 8.91053 8.91583L8.91116 8.9152Z" fill="black"/>
<path d="M16.4156 7.60878C16.2578 7.46036 16.0142 7.36329 15.7963 7.32885C15.4249 7.27061 15.0698 7.50858 14.9064 7.84863C14.7336 8.20809 14.7899 8.60638 15.0836 8.9076C15.4756 9.30965 15.8821 9.69729 16.3129 10.1206C15.8933 10.5383 15.4976 10.9241 15.1112 11.3186C14.7198 11.7182 14.7129 12.283 15.0836 12.6607C15.4525 13.0364 16.0273 13.0408 16.4256 12.6513C17.05 12.0401 17.6687 11.4226 18.2792 10.797C18.6688 10.3981 18.6662 9.85447 18.2755 9.45556C17.6643 8.8312 17.0518 8.20621 16.4156 7.60815V7.60878Z" fill="black"/>
</svg>
