<svg width="24" height="24" viewBox="0 0 24 24" fill="none" xmlns="http://www.w3.org/2000/svg">
<g clip-path="url(#clip0_799_8155)">
<path d="M22.7279 0.872154C15.5783 0.872154 8.42928 0.875247 1.27965 0.865968C0.705308 0.86535 0.311064 1.0571 0.123535 1.61318V22.3559C0.311064 22.9113 0.705308 23.1037 1.27965 23.1025C8.42928 23.0932 15.5783 23.0963 22.7279 23.0963C23.5009 23.0963 23.8432 22.7555 23.8432 21.9841C23.8432 15.3173 23.8432 8.6505 23.8432 1.98308C23.8432 1.21174 23.5015 0.871535 22.7273 0.871535L22.7279 0.872154ZM21.9722 21.2282H1.98707V8.27999H2.26743C6.08114 8.27999 9.89485 8.28061 13.7086 8.27999C14.9699 8.27999 15.8698 7.7103 16.4076 6.56597C16.4373 6.50349 16.537 6.43483 16.6044 6.43422C18.3875 6.42679 20.1706 6.42865 21.9722 6.42865V21.2289V21.2282ZM21.7086 4.57607C19.7472 4.57607 17.7865 4.57607 15.8252 4.57607C15.1525 4.57607 14.8108 4.89154 14.7613 5.55525C14.7229 6.07174 14.3268 6.42617 13.7779 6.42741C12.1953 6.42927 10.6122 6.42803 9.02962 6.42803H1.99511V2.73958H3.64512C3.64512 2.98885 3.64512 3.23318 3.64512 3.47751C3.64512 4.14927 3.99975 4.57174 4.56543 4.57545C5.14102 4.57855 5.49813 4.15422 5.49813 3.46638C5.49813 3.22824 5.49813 2.99071 5.49813 2.73834H7.35176C7.35176 3.02844 7.3499 3.31174 7.35176 3.59504C7.35609 4.1604 7.74538 4.57298 8.27393 4.57483C8.80433 4.57669 9.19858 4.16535 9.20415 3.60246C9.20662 3.31855 9.20415 3.03463 9.20415 2.7371H11.0578C11.0578 2.97215 11.0534 3.21525 11.0596 3.45834C11.0633 3.6037 11.0621 3.75401 11.0986 3.89318C11.2131 4.33483 11.629 4.61628 12.0753 4.57174C12.5289 4.52659 12.8897 4.1536 12.9071 3.69277C12.9188 3.37855 12.9095 3.0637 12.9095 2.73648H21.9815V4.57607H21.7086Z" fill="black"/>
<path d="M5.37992 10.6206C5.1961 10.247 4.76163 10.0602 4.36553 10.1573C3.93477 10.2631 3.64821 10.6113 3.64636 11.061C3.64141 12.287 3.6445 13.513 3.6445 14.739C3.6445 15.9724 3.64141 17.2064 3.64574 18.4398C3.64759 18.9835 4.0505 19.3917 4.57039 19.3917C5.09151 19.3917 5.49503 18.9853 5.49627 18.4404C5.49937 15.9884 5.49937 13.5365 5.49256 11.0845C5.49256 10.9286 5.44862 10.7604 5.37992 10.6206Z" fill="black"/>
<path d="M11.9088 10.1332C10.7211 10.1319 9.53403 10.1313 8.34634 10.1332C7.76519 10.1338 7.35052 10.5235 7.35176 11.0616C7.35299 11.5979 7.76828 11.9827 8.35191 11.9845C8.94545 11.9864 9.5396 11.9845 10.1331 11.9845C10.7267 11.9845 11.3208 11.9864 11.9143 11.9845C12.4955 11.9827 12.9108 11.593 12.9089 11.0555C12.9071 10.5179 12.493 10.1338 11.9082 10.1332H11.9088Z" fill="black"/>
<path d="M10.1207 13.8383C9.51174 13.8322 8.90274 13.8328 8.29435 13.8383C7.75405 13.8427 7.34804 14.2497 7.35176 14.7705C7.35547 15.2808 7.75838 15.6785 8.28693 15.6878C8.59514 15.6934 8.90336 15.6891 9.21157 15.6891C9.51236 15.6891 9.81253 15.6928 10.1133 15.6884C10.6542 15.6804 11.0603 15.2759 11.0559 14.7557C11.0522 14.2441 10.6499 13.8445 10.1207 13.8396V13.8383Z" fill="black"/>
<path d="M19.392 13.8383C18.7756 13.8315 18.1585 13.8315 17.5421 13.8383C17.0172 13.8445 16.6162 14.2528 16.6168 14.7643C16.618 15.2746 17.0197 15.6773 17.5464 15.6872C17.8546 15.6928 18.1628 15.6884 18.4711 15.6884C18.7793 15.6884 19.0875 15.6934 19.3957 15.6872C19.9212 15.6767 20.3222 15.2715 20.321 14.76C20.3197 14.2484 19.9187 13.8439 19.3914 13.8383H19.392Z" fill="black"/>
<path d="M15.6884 10.1332C15.1785 10.1332 14.7638 10.5495 14.7644 11.0598C14.7644 11.5689 15.1816 11.9845 15.6915 11.9839C16.2009 11.9833 16.6168 11.5664 16.6162 11.0573C16.6156 10.5476 16.199 10.1326 15.6891 10.1332H15.6884Z" fill="black"/>
<path d="M19.4031 10.1332C18.8925 10.1295 18.4741 10.5414 18.4704 11.0511C18.4667 11.5608 18.8801 11.9802 19.3889 11.9839C19.8983 11.9876 20.3185 11.5738 20.3216 11.0654C20.3253 10.5557 19.9125 10.1369 19.4031 10.1332Z" fill="black"/>
<path d="M13.8429 13.8371C13.3323 13.834 12.9145 14.2466 12.9114 14.7563C12.9083 15.266 13.3217 15.6847 13.8311 15.6878C14.3405 15.6909 14.7601 15.2765 14.7626 14.768C14.7657 14.2577 14.3522 13.8402 13.8429 13.8371Z" fill="black"/>
<path d="M8.28755 17.541C7.77695 17.5361 7.35671 17.9468 7.35176 18.4559C7.34681 18.9656 7.75838 19.3862 8.26712 19.3917C8.7771 19.3967 9.19796 18.9847 9.20291 18.4763C9.20786 17.9666 8.79629 17.546 8.28755 17.541Z" fill="black"/>
<path d="M11.9799 17.541C11.47 17.5429 11.0565 17.9598 11.0578 18.4701C11.0596 18.9792 11.4774 19.3936 11.9868 19.3917C12.4961 19.3899 12.9108 18.9717 12.9089 18.4627C12.9071 17.9536 12.4893 17.5398 11.9793 17.541H11.9799Z" fill="black"/>
<path d="M15.6884 17.541C15.1785 17.5416 14.7638 17.9573 14.7644 18.4676C14.765 18.9767 15.1822 19.3924 15.6915 19.3917C16.2009 19.3911 16.6168 18.9736 16.6156 18.4645C16.6149 17.9548 16.1984 17.5404 15.6884 17.541Z" fill="black"/>
</g>
<defs>
<clipPath id="clip0_799_8155">
<rect width="24" height="24" fill="white"/>
</clipPath>
</defs>
</svg>
