<svg width="40" height="40" viewBox="0 0 40 40" fill="none" xmlns="http://www.w3.org/2000/svg">
<path d="M39.601 12.1774C37.8313 4.26254 30.0604 -1.05288 22.05 0.224945C17.0083 1.02996 13.2146 3.7085 10.6833 8.13351C9.50313 10.1976 8.91458 12.4481 8.7625 14.8132C8.69479 15.8744 9.52292 16.6357 10.5635 16.5013C11.05 16.4378 11.399 16.1525 11.6792 15.7796C12.2115 15.0704 12.9198 14.5987 13.726 14.2706C14.3146 14.0311 14.9115 13.7988 15.5229 13.6281C16.3917 13.3854 17.2781 13.2021 18.2115 12.9803C18.1844 13.4968 18.1542 13.9228 18.1406 14.3487C18.1271 14.7767 18.126 15.2058 18.126 15.6349C18.126 16.6138 18.7833 17.3116 19.6938 17.3064C20.5917 17.3022 21.2323 16.6169 21.2521 15.6609C21.2708 14.7653 21.3135 13.8697 21.3302 12.973C21.3354 12.7137 21.4156 12.6012 21.6906 12.6023C23.4729 12.6095 25.2552 12.6095 27.0375 12.6002C27.326 12.5991 27.4229 12.7064 27.4208 12.9886C27.4125 14.7549 27.4104 16.5201 27.4219 18.2863C27.424 18.6071 27.2854 18.6769 27.0021 18.681C26.0917 18.6967 25.1802 18.7331 24.2698 18.7591C23.4198 18.7831 22.7688 19.3819 22.7104 20.2005C22.6448 21.1169 23.3292 21.8615 24.2677 21.874C25.1625 21.8865 26.0583 21.8772 27.0042 21.8772C26.8635 22.5103 26.7385 23.1831 26.5625 23.8423C26.0823 25.6346 25.5396 27.3863 23.95 28.5891C23.4344 28.9797 23.3604 29.7222 23.6229 30.3064C23.8823 30.8855 24.4688 31.275 25.1281 31.2198C25.9177 31.1531 26.7083 31.0615 27.4865 30.9157C33.4031 29.8034 38.3865 24.9296 39.6083 19.0653C39.774 18.2697 39.8708 17.4584 39.999 16.6544V14.6268C39.8677 13.8103 39.7792 12.9845 39.6 12.1794L39.601 12.1774ZM19.9365 4.2313C19.2698 5.91632 18.8583 7.66695 18.5885 9.45403C18.5615 9.63524 18.5521 9.80083 18.3052 9.84665C17.3615 10.0237 16.4115 10.1841 15.4812 10.4194C14.5531 10.6538 13.6448 10.9714 12.6604 11.2734C14.0719 7.79921 16.4896 5.38728 20.0083 3.95532C19.9729 4.09904 19.9625 4.16777 19.9365 4.2313ZM21.749 9.43841C22.1344 7.48783 22.5156 5.53516 23.6583 3.85743C24.2875 2.93368 24.4448 2.94306 25.0969 3.85743C25.924 5.01757 26.2979 6.37559 26.6406 7.73568C26.7823 8.29701 26.8865 8.86771 27.0073 9.43737L21.749 9.43841ZM28.7469 3.98136C31.8365 5.03319 34.824 7.81483 36.0719 11.2859C35.9406 11.2463 35.8375 11.2245 35.7406 11.1859C34.0865 10.534 32.3667 10.1382 30.6146 9.8706C30.3844 9.83519 30.2052 9.81228 30.1615 9.51027C29.8969 7.65445 29.4667 5.83925 28.7563 4.09904C28.7469 4.07613 28.7521 4.04801 28.7469 3.98136ZM28.8281 27.2738C29.2031 25.8596 29.5885 24.4359 29.9531 23.0061C30.0552 22.6051 30.1042 22.1896 30.1656 21.7793C30.1948 21.5793 30.2583 21.4533 30.4885 21.421C32.3729 21.1534 34.2135 20.7097 35.9906 19.9964C35.8708 22.2333 31.8167 26.3167 28.8281 27.2738ZM36.649 15.9702C36.3656 16.1962 36.0906 16.442 35.776 16.6169C34.1667 17.5167 32.3979 17.9187 30.5875 18.2572V13.0136C31.1438 13.1313 31.7219 13.2042 32.2667 13.3792C33.375 13.7353 34.4781 14.1175 35.5583 14.5508C35.9552 14.7101 36.2917 15.0319 36.6406 15.2975C36.9125 15.5047 36.926 15.7505 36.649 15.9702Z" fill="#020202"/>
<path d="M12.4938 18.8216C6.92188 19.4819 3.83854 25.7158 6.72396 30.5074C6.90104 30.8011 6.84167 30.9396 6.62708 31.1531C4.66875 33.0933 2.7125 35.0366 0.777083 36.9986C0.466667 37.3131 0.25625 37.7266 0 38.0942V38.718C0.201042 39.3481 0.61875 39.7636 1.25 39.9656H1.875C2.24375 39.7105 2.65729 39.5011 2.97292 39.1918C4.93854 37.259 6.88542 35.3073 8.83021 33.3526C9.04167 33.1401 9.18229 33.0745 9.47708 33.2516C11.074 34.2118 12.8125 34.5388 14.6521 34.2565C18.876 33.6077 21.7406 29.7024 21.1667 25.3992C20.6188 21.2887 16.7063 18.3228 12.4938 18.8216ZM13.4406 31.2323C10.8625 31.2333 8.74792 29.1223 8.75 26.5469C8.75208 23.9735 10.8708 21.8699 13.4531 21.8761C16.0146 21.8824 18.1198 23.984 18.124 26.5406C18.1292 29.1171 16.0198 31.2302 13.4406 31.2323Z" fill="#020202"/>
</svg>
