<svg width="24" height="24" viewBox="0 0 24 24" fill="none" xmlns="http://www.w3.org/2000/svg">
<g clip-path="url(#clip0_365_1119)">
<path d="M23.9937 2.77327C23.99 1.26106 22.739 0.00683083 21.2287 0.00495231C15.0737 -0.00193561 8.91938 -0.00193561 2.76504 0.00683083C1.85964 0.00808318 1.13019 0.412592 0.569163 1.12267C0.261727 1.51153 0.122098 1.97114 0 2.43889V14.1565C0.0413253 14.3143 0.0770154 14.4733 0.124602 14.6292C0.497782 15.8509 1.58476 16.628 2.92533 16.6286C7.76791 16.6299 12.6099 16.6286 17.4524 16.6286C18.6866 16.6286 19.9207 16.6368 21.1542 16.6267C22.7314 16.6142 23.9887 15.3957 23.9925 13.8565C24.0019 10.1621 24.0019 6.4677 23.9925 2.77327H23.9937ZM22.1222 13.6718C22.1222 14.3838 21.7528 14.7545 21.0402 14.7545C15.0099 14.7545 8.97949 14.7545 2.94975 14.7545C2.24973 14.7545 1.87529 14.3819 1.87529 13.6881C1.87529 10.1026 1.87529 6.51716 1.87529 2.93169C1.87529 2.24916 2.2491 1.87721 2.93347 1.87721C5.95648 1.87721 8.97949 1.87721 12.0025 1.87721C15.0099 1.87721 18.0172 1.87721 21.0246 1.87721C21.7609 1.87721 22.1228 2.23476 22.1228 2.963C22.1228 6.53282 22.1228 10.1026 22.1228 13.6725L22.1222 13.6718Z" fill="black"/>
<path d="M21.247 20.29C20.341 20.2794 19.435 20.2819 18.5289 20.2888C18.3649 20.29 18.2904 20.2374 18.2184 20.0865C17.7124 19.0339 16.8659 18.4491 15.6994 18.4453C14.5348 18.4416 13.677 19.0095 13.1667 20.0627C13.0803 20.2418 12.9857 20.2882 12.8004 20.2882C9.53567 20.2832 6.27034 20.2844 3.00564 20.2844C2.89607 20.2844 2.78649 20.2819 2.67754 20.2913C2.15847 20.3357 1.77277 20.8336 1.85542 21.3476C1.9387 21.8661 2.31814 22.1579 2.91673 22.1579C6.22088 22.1585 9.5244 22.1598 12.8285 22.1542C13.0001 22.1542 13.089 22.1955 13.1598 22.3614C13.3739 22.8624 13.7102 23.2819 14.1873 23.5424C14.5435 23.7365 14.9449 23.8492 15.3262 23.9982H16.0294C16.0726 23.9838 16.1152 23.9638 16.159 23.955C17.117 23.7703 17.8039 23.2324 18.2159 22.3533C18.2879 22.1986 18.3668 22.1535 18.5271 22.1548C19.3786 22.1617 20.2295 22.161 21.0811 22.1548C21.2345 22.1535 21.396 22.1373 21.5401 22.0878C21.9583 21.945 22.2088 21.5142 22.1411 21.089C22.0673 20.6219 21.716 20.2932 21.2464 20.2875L21.247 20.29ZM15.6863 22.1241C15.1878 22.1241 14.774 21.7096 14.7771 21.2136C14.7809 20.7271 15.1847 20.3195 15.6731 20.3101C16.1665 20.3007 16.5885 20.7152 16.5917 21.2118C16.5948 21.7115 16.1853 22.1241 15.6869 22.1241H15.6863Z" fill="black"/>
<path d="M16.8609 7.40333C14.4734 6.51103 12.0853 5.61999 9.69598 4.73207C8.91143 4.44028 8.31033 4.85856 8.30845 5.692C8.30657 6.55862 8.30845 7.42587 8.30845 8.2925C8.30845 9.15912 8.30783 10.0264 8.30845 10.893C8.30908 11.7759 8.90266 12.1923 9.72353 11.8867C10.6296 11.5492 11.535 11.2123 12.441 10.8742C13.9093 10.3269 15.3763 9.77716 16.8453 9.23364C17.189 9.10653 17.4464 8.90365 17.5296 8.53107C17.6442 8.01824 17.4032 7.60559 16.8609 7.40333ZM10.1919 9.71141V6.91492C11.4404 7.38079 12.6664 7.8379 13.9412 8.31316C12.6633 8.78968 11.4398 9.24554 10.1919 9.71141Z" fill="black"/>
</g>
<defs>
<clipPath id="clip0_365_1119">
<rect width="24" height="24" fill="white"/>
</clipPath>
</defs>
</svg>
