<svg width="24" height="24" viewBox="0 0 24 24" fill="none" xmlns="http://www.w3.org/2000/svg">
<g clip-path="url(#clip0_366_1153)">
<path d="M12.7856 17.645C13.017 17.6637 13.2584 17.6825 13.483 17.6387C13.897 17.5581 14.1722 17.1579 14.1634 16.7189C14.1547 16.2718 13.862 15.9054 13.4092 15.8366C12.5173 15.7015 11.6204 15.7165 10.7255 15.8166C10.3252 15.8616 9.9268 15.9272 9.48212 15.9904C9.40207 14.9668 9.32327 13.9625 9.24259 12.9358H9.54779C10.2658 12.9358 10.9838 12.9376 11.7018 12.9351C12.3065 12.9326 12.7093 12.5587 12.7118 12.0034C12.7143 11.4482 12.3115 11.0673 11.7099 11.0642C10.9844 11.0611 10.2583 11.0636 9.53278 11.0636C9.4496 11.0636 9.36642 11.0636 9.24134 11.0636C9.32389 10.0275 9.40332 9.02383 9.48525 7.98957C11.1945 8.3435 12.85 8.33537 14.5087 8.0002C14.523 8.07149 14.5349 8.10838 14.538 8.1459C14.6025 8.86 14.6713 9.5741 14.7288 10.2888C14.772 10.826 15.176 11.2162 15.6932 11.203C16.2104 11.1899 16.6051 10.7722 16.6007 10.2376C16.5994 10.0975 16.5894 9.95679 16.5763 9.81735C16.5044 9.03446 16.4306 8.25158 16.3549 7.4468C17.5707 6.96969 18.6934 6.30686 19.7172 5.45394C19.7747 5.5221 19.8254 5.58025 19.8742 5.64028C20.7535 6.7277 21.3814 7.9433 21.7586 9.29021C21.9143 9.84674 22.4065 10.14 22.9181 9.99806C23.4491 9.85049 23.7343 9.33961 23.5592 8.78434C22.0725 4.06638 18.9035 1.20121 14.0558 0.201342C13.5999 0.107545 13.1308 0.07628 12.668 0.015625H11.0757C11.0163 0.0293818 10.9569 0.0462652 10.8968 0.0562701C10.2752 0.162573 9.64161 0.221977 9.03432 0.380806C6.31686 1.09241 4.12662 2.61316 2.4361 4.83739C0.285272 7.66816 -0.438343 10.8704 0.253375 14.3352C0.99075 18.0252 3.14346 20.7353 6.39879 22.5724C8.12308 23.5454 9.99372 24.0087 11.9794 23.9794C12.5417 23.9712 12.9295 23.6029 12.9463 23.0752C12.9632 22.5543 12.6105 22.1847 12.067 22.1028C11.8944 22.0765 11.703 21.9871 11.5785 21.8664C11.369 21.662 11.1595 21.4325 11.0338 21.173C10.7386 20.5658 10.4697 19.943 10.2339 19.3102C10.0619 18.8474 9.95932 18.3585 9.82298 17.8707C9.90554 17.8451 9.94807 17.8269 9.99247 17.8182C10.9156 17.6381 11.8456 17.5693 12.7856 17.6443V17.645ZM18.3344 4.11078C18.1023 4.44594 16.6413 5.34451 16.0378 5.53523C15.6751 4.4647 15.3129 3.39417 14.9527 2.3299C16.1692 2.69257 17.3068 3.29537 18.3344 4.11078ZM9.90366 5.84914C10.1357 4.88491 10.4134 3.93506 10.8925 3.06088C11.0557 2.76261 11.2533 2.47434 11.4791 2.22109C11.8806 1.77212 12.1896 1.78025 12.5836 2.24298C12.7887 2.48435 12.9664 2.75636 13.1152 3.03712C13.6287 4.00698 13.9627 5.04186 14.1909 6.1249C13.2422 6.45819 10.9062 6.46069 9.84862 6.13178C9.86613 6.03986 9.88052 5.94356 9.90303 5.84914H9.90366ZM4.30549 5.46207C4.57192 5.66217 4.82647 5.86289 5.09103 6.05049C5.81839 6.56637 6.59079 7.00346 7.4201 7.33362C7.61899 7.41304 7.69529 7.4912 7.66777 7.73257C7.54519 8.82436 7.45513 9.91928 7.35068 11.0392H1.94702C2.16154 8.94129 2.94395 7.09225 4.30612 5.46207H4.30549ZM4.30424 18.5304C2.9477 16.9165 2.16404 15.0643 1.94515 12.9508H7.3857C7.41197 13.3972 7.42761 13.8406 7.46576 14.2827C7.52643 14.9818 7.59772 15.6796 7.67528 16.3768C7.68841 16.4982 7.67277 16.5569 7.55207 16.6045C6.39879 17.0634 5.3462 17.6944 4.38742 18.4823C4.36991 18.4966 4.34802 18.506 4.30487 18.5304H4.30424ZM5.68455 19.873C6.0817 19.4521 7.46263 18.6186 7.98861 18.4666C8.35699 19.549 8.71911 20.6139 9.0781 21.6682C7.8579 21.3074 6.7165 20.7009 5.68393 19.873H5.68455ZM7.98486 5.54336C7.17244 5.19881 6.40442 4.73108 5.66767 4.14204C6.70462 3.29725 7.84977 2.69883 9.07998 2.32614C8.72098 3.38167 8.35761 4.44844 7.98486 5.54336Z" fill="black"/>
<path d="M23.4257 12.8808C23.1268 12.6689 22.8422 12.4369 22.5514 12.2136C21.8084 11.644 21.0647 11.0756 20.323 10.5047C19.9978 10.2545 19.6469 10.1814 19.2742 10.3709C18.912 10.5547 18.7538 10.8686 18.7563 11.2707C18.7588 11.7234 18.7576 12.1755 18.7563 12.6282C18.7563 12.6951 18.7475 12.762 18.7425 12.8408H18.4699C17.3385 12.8408 16.2064 12.839 15.0751 12.8415C14.5922 12.8427 14.2457 13.0828 14.1244 13.4886C13.9337 14.1296 14.3646 14.7068 15.0525 14.7111C16.1996 14.718 17.3472 14.713 18.4942 14.713H18.7576C18.7576 15.2333 18.7651 15.7241 18.7551 16.2137C18.7463 16.6402 18.8851 16.9841 19.276 17.183C19.67 17.3831 20.0259 17.278 20.363 17.0198C21.3837 16.2363 22.4075 15.4552 23.437 14.683C23.694 14.4904 23.9085 14.279 24.0011 13.9639V13.5893C23.8998 13.2798 23.6878 13.0647 23.4263 12.8796L23.4257 12.8808Z" fill="black"/>
<path d="M22.5789 19.7703C22.3606 19.7659 22.1423 19.7697 21.9234 19.7697C20.8164 19.7697 19.7094 19.7697 18.5687 19.7697C18.5687 19.15 18.5655 18.5591 18.5699 17.9682C18.5724 17.5661 18.4173 17.2509 18.0564 17.0665C17.6949 16.8808 17.346 16.9377 17.027 17.1822C15.925 18.0257 14.8217 18.8674 13.7235 19.7159C13.1856 20.1324 13.1938 20.8352 13.7323 21.251C14.1519 21.5749 14.576 21.8939 14.9975 22.2146C15.6798 22.7336 16.3609 23.2558 17.0457 23.7717C17.3585 24.0074 17.7031 24.0574 18.0564 23.8748C18.3979 23.6985 18.5643 23.404 18.5687 23.0194C18.5705 22.8637 18.5687 22.7074 18.5687 22.5517C18.5687 22.2509 18.5687 21.9508 18.5687 21.6406C18.892 21.6406 19.1803 21.6406 19.4686 21.6406C20.5062 21.6406 21.5438 21.6456 22.5807 21.6381C23.1399 21.6337 23.5345 21.2279 23.527 20.6914C23.5195 20.1617 23.1286 19.7809 22.5782 19.7709L22.5789 19.7703Z" fill="black"/>
</g>
<defs>
<clipPath id="clip0_366_1153">
<rect width="24" height="24" fill="white"/>
</clipPath>
</defs>
</svg>
