<svg width="24" height="24" viewBox="0 0 24 24" fill="none" xmlns="http://www.w3.org/2000/svg">
<g clip-path="url(#clip0_314_1904)">
<path d="M23.2448 24H0.755796C0.195992 23.8087 -0.000585488 23.4103 1.30927e-06 22.8305C0.00939006 15.6059 0.00586928 8.38181 0.00704287 1.15775C0.00704287 1.02572 0.00352209 0.889586 0.0293412 0.761664C0.127336 0.272275 0.505234 0.00645608 1.08675 0.00645608C8.33311 0.00586928 15.5789 0.00939006 22.8246 1.30927e-06C23.4044 -0.000585488 23.8028 0.195992 23.9941 0.755796V23.2501C23.8715 23.6268 23.6221 23.8768 23.2448 24ZM9.03081 10.5178C7.23286 8.55374 7.8132 5.90435 9.24205 4.63805C10.7806 3.27492 13.0298 3.22504 14.6101 4.50132C16.0454 5.66025 16.9062 8.39589 14.9756 10.5201C17.3557 11.6925 18.7781 13.5814 19.2106 16.2032H22.1082V1.89477H1.89712V16.2068H4.78885C5.22602 13.5797 6.6443 11.6966 9.03081 10.5178ZM1.89007 22.1088H22.1093V18.108H1.89007V22.1088ZM17.2853 16.2097C16.942 13.9429 14.8589 11.7665 11.9883 11.7729C9.11824 11.7794 7.05389 13.9611 6.71531 16.2097H17.2853ZM14.2204 7.66944C14.2216 6.45536 13.2141 5.44489 12.0012 5.4443C10.7889 5.44313 9.78132 6.45183 9.77956 7.66768C9.77839 8.88176 10.7859 9.89223 11.9988 9.89281C13.2111 9.89399 14.2187 8.88528 14.2204 7.66944Z" fill="#020202"/>
<path d="M13.9218 19.173C15.7567 19.173 17.591 19.1718 19.4259 19.1736C20.0256 19.1742 20.437 19.5568 20.4393 20.1043C20.4417 20.5913 20.0872 20.9874 19.6008 21.0402C19.531 21.0478 19.4605 21.0472 19.3901 21.0472C15.7285 21.0472 12.0669 21.0461 8.40528 21.0496C7.96753 21.0496 7.62425 20.9 7.43589 20.4904C7.1554 19.8807 7.59139 19.1953 8.27736 19.1777C8.8624 19.1624 9.44861 19.1736 10.0336 19.1736C11.3299 19.1736 12.6255 19.173 13.9218 19.173Z" fill="#020202"/>
<path d="M4.72958 18.9406C5.37213 18.9354 5.90963 19.4711 5.90787 20.1136C5.90611 20.7474 5.38034 21.2755 4.74719 21.2802C4.10465 21.2855 3.56714 20.7497 3.5689 20.1072C3.57066 19.4734 4.09643 18.9453 4.72958 18.9406Z" fill="#020202"/>
</g>
<defs>
<clipPath id="clip0_314_1904">
<rect width="23.9947" height="24" fill="white"/>
</clipPath>
</defs>
</svg>
